#!OML:ASF F:\VICON\USERDATA\INSTALL\rory3\rory3.ASF
:FULLY-SPECIFIED
:DEGREES
2358
root 0.290142 17.6498 -0.819116 -0.410458 -4.41168 0.127128
lowerback 7.38093 1.57055 2.97338
upperback 0.452033 2.30973 -0.731301
thorax -3.52172 1.09549 -2.66236
lowerneck -23.6593 -3.42734 -5.14877
upperneck 24.011 -4.95016 6.89228
head 12.1617 -1.76284 2.60976
rclavicle 2.4202e-014 7.35503e-015
rhumerus 45.4865 -49.6887 -8.41692
rradius 50.863
rwrist 22.0505
rhand -48.2003 -1.68611
rfingers 7.12502
rthumb -20.8608 -30.5846
lclavicle 2.4202e-014 7.35503e-015
lhumerus -42.7846 23.1081 48.1032
lradius 33.9436
lwrist -8.31575
lhand -22.1651 32.6368
lfingers 7.12502
lthumb 4.24931 -297.426
rfemur -6.76417 -6.09531 28.0447
rtibia 30.8727
rfoot -22.8685 -6.00845
rtoes 11.9239
lfemur -14.4575 -0.286282 -8.9542
ltibia 43.028
lfoot -13.8348 4.69269
ltoes -19.792
2359
root 0.27201 17.6529 -0.872983 -0.407335 -3.99844 0.0312694
lowerback 7.39388 1.59903 2.98092
upperback 0.405952 2.34477 -0.85372
thorax -3.56903 1.11049 -2.79852
lowerneck -23.564 -3.51793 -5.17199
upperneck 24.0443 -5.08877 6.93372
head 12.1686 -1.82257 2.60601
rclavicle 1.9689e-014 -8.4732e-015
rhumerus 44.7393 -48.9753 -7.27907
rradius 52.4898
rwrist 22.8768
rhand -48.4974 -1.0982
rfingers 7.12502
rthumb -21.1462 -29.965
lclavicle 1.9689e-014 -8.4732e-015
lhumerus -43.3221 23.9478 47.7049
lradius 32.9421
lwrist -9.01776
lhand -22.281 31.8302
lfingers 7.12502
lthumb 4.13745 -298.23
rfemur -6.92044 -6.23013 28.2601
rtibia 30.7814
rfoot -22.8071 -6.21097
rtoes 12.3981
lfemur -14.0258 -0.194547 -8.81884
ltibia 43.8404
lfoot -14.3312 4.27349
ltoes -22.4359
2360
root 0.25162 17.6616 -0.926618 -0.420621 -3.65002 -0.0909942
lowerback 7.42969 1.63066 2.98353
upperback 0.360644 2.38532 -0.944442
thorax -3.62937 1.12818 -2.90058
lowerneck -23.3662 -3.60504 -5.30508
upperneck 24.0388 -5.20554 7.05019
head 12.1445 -1.87555 2.65306
rclavicle -1.19209e-014 -5.86415e-015
rhumerus 44.0298 -48.2159 -6.22857
rradius 54.209
rwrist 23.7308
rhand -48.8219 -0.746159
rfingers 7.12502
rthumb -21.4579 -29.5777
lclavicle -1.19209e-014 -5.86415e-015
lhumerus -43.8929 24.5072 47.4192
lradius 31.933
lwrist -9.21087
lhand -22.981 30.8107
lfingers 7.12502
lthumb 3.46147 -299.238
rfemur -7.0173 -6.22973 28.5205
rtibia 30.6574
rfoot -22.7929 -6.5244
rtoes 12.5643
lfemur -13.5935 0.10962 -8.6653
ltibia 44.6488
lfoot -14.4381 4.07756
ltoes -23.5405
2361
root 0.232799 17.6716 -0.977252 -0.438747 -3.26676 -0.0426443
lowerback 7.39729 1.64951 2.80947
upperback 0.364419 2.39116 -1.04302
thorax -3.60969 1.13375 -2.90425
lowerneck -23.3453 -3.6667 -5.389
upperneck 24.0552 -5.25316 7.01617
head 12.1516 -1.90935 2.64618
rclavicle -2.51463e-014 2.23633e-014
rhumerus 43.5731 -47.5504 -5.4048
rradius 56.0133
rwrist 24.5805
rhand -49.1676 -0.0583793
rfingers 7.12502
rthumb -21.79 -28.8518
lclavicle -2.51463e-014 2.23633e-014
lhumerus -44.377 24.7546 47.5195
lradius 31.4792
lwrist -9.39217
lhand -22.8243 32.7866
lfingers 7.12502
lthumb 3.61274 -297.264
rfemur -7.08824 -6.35556 28.56
rtibia 30.4749
rfoot -22.6889 -6.72841
rtoes 13.0057
lfemur -13.1633 0.373518 -8.7252
ltibia 45.4564
lfoot -13.8869 4.40282
ltoes -23.2309
2362
root 0.215789 17.6796 -1.03187 -0.494305 -2.77964 -0.0791331
lowerback 7.40305 1.65404 2.73442
upperback 0.42366 2.38791 -1.11328
thorax -3.55168 1.1348 -2.93338
lowerneck -23.5455 -3.71007 -5.32677
upperneck 24.1008 -5.27941 6.84248
head 12.2024 -1.93354 2.56451
rclavicle 1.04238e-014 -1.53064e-014
rhumerus 42.8767 -46.9269 -4.29183
rradius 57.8161
rwrist 25.3719
rhand -49.5343 0.731777
rfingers 7.12502
rthumb -22.142 -28.0203
lclavicle 1.04238e-014 -1.53064e-014
lhumerus -44.7624 25.2196 47.5311
lradius 30.7646
lwrist -9.37373
lhand -23.2335 32.7723
lfingers 7.12502
lthumb 3.21758 -297.272
rfemur -7.12421 -6.55845 28.6881
rtibia 30.2615
rfoot -22.5946 -6.89976
rtoes 13.7311
lfemur -12.7333 0.464948 -8.68681
ltibia 46.2732
lfoot -13.1216 4.56204
ltoes -21.7846
